<?xml version="1.0" encoding="UTF-8"?>
<!DOCTYPE svg PUBLIC "-//W3C//DTD SVG 1.1//EN" "http://www.w3.org/Graphics/SVG/1.1/DTD/svg11.dtd">
<!-- Creator: CorelDRAW X7 -->
<svg xmlns="http://www.w3.org/2000/svg" xml:space="preserve" width="203.2mm" height="203.2mm" version="1.1" style="shape-rendering:geometricPrecision; text-rendering:geometricPrecision; image-rendering:optimizeQuality; fill-rule:evenodd; clip-rule:evenodd"
viewBox="0 0 20320 20320"
 xmlns:xlink="http://www.w3.org/1999/xlink">
 <defs>
  <style type="text/css">
   <![CDATA[
    .fil4 {fill:none}
    .fil0 {fill:#336699}
    .fil2 {fill:#99CC33}
    .fil3 {fill:#99CC33;fill-rule:nonzero}
    .fil1 {fill:#99CC33;fill-rule:nonzero}
   ]]>
  </style>
 </defs>
 <g id="Layer_x0020_1">
  <metadata id="CorelCorpID_0Corel-Layer"/>
  <polygon class="fil0" points="11829,8432 8466,10081 9188,10081 11829,8786 14470,10081 15192,10081 13705,9352 13705,8920 13734,8920 13734,8789 13356,8789 13356,8920 13385,8920 13385,9195 "/>
 </g>
 <g id="Layer_x0020_2">
  <metadata id="CorelCorpID_1Corel-Layer"/>
  <path class="fil1" d="M15213 11695l-532 -750 511 -717 -295 0 -367 526 -365 -526 -304 0 514 721 -535 746 296 0 388 -555 385 555 304 0zm-3020 -517l0 -250 -621 0 0 250 621 0zm1391 -950l-1086 0 0 1467 1096 0 0 -232 -840 0 0 -392 735 0 0 -233 -735 0 0 -377 830 0 0 -233z"/>
 </g>
 <g id="Layer_x0020_3">
  <metadata id="CorelCorpID_2Corel-Layer"/>
  <path class="fil0" d="M11659 9087l150 0 0 150 -150 0 0 -150zm-2007 1556l0 1052 255 0 0 -1467 -190 0 -84 0 -447 694 -446 -694 -274 0 0 1467 255 0 0 -1048 459 688 9 0 463 -692zm1576 -415l-1086 0 0 1467 1096 0 0 -232 -840 0 0 -392 735 0 0 -233 -735 0 0 -377 830 0 0 -233zm-3900 479c0,76 -27,136 -82,181 -55,45 -128,68 -221,68l-378 0 0 -495 376 0c97,0 172,21 225,62 53,41 80,103 80,184zm308 988l-396 -555c52,-14 99,-34 142,-60 42,-26 79,-57 110,-94 30,-37 54,-80 72,-128 17,-48 26,-103 26,-164 0,-72 -13,-136 -38,-194 -25,-58 -61,-107 -108,-147 -46,-40 -104,-71 -171,-92 -67,-22 -142,-32 -224,-33l-4 0 -654 0 0 1467 256 0 0 -511 324 0 361 511 304 0zm-1655 -969c0,80 -28,144 -85,192 -57,49 -135,73 -233,73l-300 0 0 -530 300 0c97,0 174,22 232,66 57,44 86,111 86,199zm262 -5c0,-76 -13,-143 -39,-204 -26,-60 -63,-111 -111,-155 -48,-43 -107,-76 -176,-99 -68,-23 -144,-34 -228,-35l-4 0 -578 0 0 1467 256 0 0 -471 292 0c81,0 157,-11 229,-33 71,-21 133,-53 187,-95 53,-42 95,-94 126,-157 30,-63 46,-136 46,-218zm1632 862c-92,-1239 238,-2391 644,-2692 -338,720 -490,1616 -309,2703 5,30 8,64 9,101l-334 0c-4,-35 -7,-73 -10,-112zm3954 -2496l150 0 0 150 -150 0 0 -150zm150 169l0 150 -150 0 0 -150 150 0zm-170 150l-150 0 0 -150 150 0 0 150z"/>
 </g>
 <g id="Layer_x0020_4">
  <metadata id="CorelCorpID_3Corel-Layer"/>
  <path class="fil2" d="M8481 7762c219,153 352,443 129,913 76,-431 -23,-729 -129,-913zm953 388c-273,56 -617,379 -821,611 181,-440 434,-653 821,-611zm533 1045c-388,-412 -864,-496 -1420,-283 406,-544 1133,-361 1420,283zm-1420 -222c335,-129 497,286 368,711 -62,-316 -177,-564 -368,-711zm-98 -76c-348,-281 -787,-254 -1278,-53 540,-529 1124,-578 1278,53zm-831 -1134c577,-60 1190,435 891,1099 -57,-612 -421,-949 -891,-1099z"/>
 </g>
 <g id="Layer_x0020_5">
  <metadata id="CorelCorpID_4Corel-Layer"/>
  <path class="fil3" d="M5521 12176c0,-27 -5,-52 -15,-74 -10,-21 -24,-40 -42,-55 -18,-15 -40,-26 -65,-35 -26,-8 -54,-12 -85,-12l-207 0 0 553 62 0 0 -195 135 0c29,0 57,-4 83,-12 27,-7 50,-19 69,-34 20,-15 36,-34 47,-57 12,-22 18,-49 18,-79zm-63 3c0,18 -3,35 -10,50 -7,15 -18,28 -31,38 -14,11 -30,20 -49,25 -18,6 -39,9 -62,9l-137 0 0 -243 140 0c45,0 81,10 109,30 27,20 40,51 40,91zm1243 -179l-400 0 0 553 404 0 0 -57 -342 0 0 -193 302 0 0 -57 -302 0 0 -189 338 0 0 -57zm1253 553l-170 -226c22,-3 42,-10 60,-19 19,-9 35,-20 48,-33 14,-14 24,-29 31,-48 8,-18 11,-38 11,-62 0,-24 -4,-47 -14,-67 -9,-21 -23,-38 -40,-52 -18,-15 -38,-26 -63,-34 -24,-8 -52,-12 -82,-12l-238 0 0 553 62 0 0 -215 158 0 160 215 77 0zm-82 -385c0,18 -4,34 -11,48 -7,15 -17,27 -29,36 -13,10 -28,18 -46,23 -17,5 -36,8 -57,8l-170 0 0 -225 171 0c45,0 80,9 105,29 25,19 37,46 37,81zm1276 8c0,-27 -5,-52 -14,-74 -10,-21 -24,-40 -42,-55 -18,-15 -40,-26 -66,-35 -25,-8 -54,-12 -85,-12l-207 0 0 553 63 0 0 -195 134 0c30,0 57,-4 84,-12 26,-7 49,-19 69,-34 20,-15 35,-34 47,-57 11,-22 17,-49 17,-79zm-62 3c0,18 -4,35 -11,50 -7,15 -17,28 -31,38 -13,11 -29,20 -48,25 -19,6 -40,9 -62,9l-137 0 0 -243 140 0c45,0 81,10 108,30 27,20 41,51 41,91zm1242 -179l-399 0 0 553 403 0 0 -57 -341 0 0 -193 302 0 0 -57 -302 0 0 -189 337 0 0 -57zm1005 58l185 0 0 -58 -433 0 0 58 185 0 0 495 63 0 0 -495zm1421 -58l-62 0 0 322c0,60 -15,106 -45,136 -30,31 -70,46 -122,46 -53,0 -94,-16 -124,-48 -30,-32 -45,-78 -45,-138l0 -318 -62 0 0 322c0,39 6,73 17,103 11,30 26,55 47,75 20,21 44,36 72,46 28,11 60,16 94,16 35,0 66,-5 94,-16 28,-10 53,-25 73,-46 20,-20 36,-46 47,-77 11,-30 16,-66 16,-106l0 -317zm1058 -4l-58 0 -252 557 64 0 65 -146 301 0 65 146 67 0 -252 -557zm96 356l-252 0 126 -282 126 282zm932 201l373 0 0 -58 -311 0 0 -495 -62 0 0 553z"/>
 </g>
 <g id="Layer_x0020_6">
  <metadata id="CorelCorpID_5Corel-Layer"/>
  <polygon class="fil4" points="0,6416 20320,6416 20320,13904 0,13904 "/>
 </g>
</svg>
