<?xml version="1.0" encoding="UTF-8"?>
<!DOCTYPE svg PUBLIC "-//W3C//DTD SVG 1.1//EN" "http://www.w3.org/Graphics/SVG/1.1/DTD/svg11.dtd">
<!-- Creator: CorelDRAW X7 -->
<svg xmlns="http://www.w3.org/2000/svg" xml:space="preserve" width="203.2mm" height="203.2mm" version="1.1" style="shape-rendering:geometricPrecision; text-rendering:geometricPrecision; image-rendering:optimizeQuality; fill-rule:evenodd; clip-rule:evenodd"
viewBox="0 0 20320 20320"
 xmlns:xlink="http://www.w3.org/1999/xlink">
 <defs>
  <style type="text/css">
   <![CDATA[
    .fil0 {fill:none}
    .fil3 {fill:#99CC33}
    .fil2 {fill:#336699;fill-rule:nonzero}
    .fil1 {fill:#99CC33;fill-rule:nonzero}
   ]]>
  </style>
 </defs>
 <g id="Layer_x0020_1">
  <metadata id="CorelCorpID_0Corel-Layer"/>
  <polygon class="fil0" points="0,6416 20320,6416 20320,13904 0,13904 "/>
 </g>
 <g id="Layer_x0020_2">
  <metadata id="CorelCorpID_1Corel-Layer"/>
  <path class="fil1" d="M13598 10664l-1090 0 0 1473 1101 0 0 -234 -844 0 0 -393 738 0 0 -234 -738 0 0 -379 833 0 0 -233zm1636 1473l-534 -754 513 -719 -297 0 -368 528 -366 -528 -305 0 515 723 -536 750 296 0 390 -558 387 558 305 0z"/>
 </g>
 <g id="Layer_x0020_3">
  <metadata id="CorelCorpID_2Corel-Layer"/>
  <polygon class="fil1" points="12201,11617 12201,11366 11578,11366 11578,11617 "/>
 </g>
 <g id="Layer_x0020_4">
  <metadata id="CorelCorpID_3Corel-Layer"/>
  <path class="fil2" d="M11232 10664l-1090 0 0 1473 1101 0 0 -234 -844 0 0 -393 738 0 0 -234 -738 0 0 -379 833 0 0 -233zm433 -1147l151 0 0 151 -151 0 0 -151zm171 -657l-3377 1656 725 0 2652 -1301 2652 1301 725 0 -1493 -733 0 -433 29 0 0 -132 -380 0 0 132 29 0 0 276 -1562 -766zm0 657l150 0 0 151 -150 0 0 -151zm150 171l0 150 -150 0 0 -150 150 0zm-170 150l-151 0 0 -150 151 0 0 150zm-5853 1325c0,81 -28,145 -85,194 -57,48 -135,73 -233,73l-302 0 0 -533 302 0c97,0 174,22 232,67 58,44 86,111 86,199zm263 -5c0,-76 -12,-144 -38,-204 -26,-60 -64,-112 -112,-156 -48,-43 -107,-77 -177,-100 -68,-23 -144,-34 -228,-34l-4 0 -581 0 0 1473 257 0 0 -474 293 0c82,0 158,-11 230,-32 71,-22 134,-54 188,-96 53,-42 95,-95 126,-158 31,-63 46,-136 46,-219zm1090 -14c0,77 -27,137 -82,182 -55,45 -129,68 -222,68l-380 0 0 -497 378 0c97,0 173,21 226,63 54,41 80,103 80,184zm310 993l-398 -558c52,-14 99,-34 142,-60 43,-26 80,-58 110,-95 31,-37 55,-80 73,-128 18,-48 26,-104 26,-165 0,-72 -12,-137 -38,-195 -25,-58 -61,-107 -108,-147 -47,-40 -104,-71 -172,-93 -67,-21 -142,-32 -225,-32l-4 0 -656 0 0 1473 256 0 0 -514 325 0 363 514 306 0zm240 -113c-93,-1245 238,-2401 646,-2703 -340,722 -492,1623 -310,2714 5,30 8,65 9,102l-336 0c-3,-36 -6,-74 -9,-113zm1784 -944l0 1057 256 0 0 -1473 -191 0 -84 0 -449 696 -448 -696 -275 0 0 1473 256 0 0 -1053 461 691 9 0 465 -695z"/>
 </g>
 <g id="Layer_x0020_5">
  <metadata id="CorelCorpID_4Corel-Layer"/>
  <path class="fil3" d="M8442 9327c-349,-282 -791,-255 -1284,-54 542,-531 1129,-580 1284,54zm98 76c336,-129 499,287 370,714 -63,-317 -178,-566 -370,-714zm1426 223c-389,-413 -867,-498 -1426,-284 408,-546 1138,-363 1426,284zm-535 -1050c-274,57 -619,382 -824,614 181,-442 436,-655 824,-614zm-957 -389c220,153 354,445 130,917 76,-433 -23,-733 -130,-917zm-866 1c579,-60 1195,437 894,1104 -57,-615 -422,-953 -894,-1104z"/>
 </g>
</svg>
